<mxfile host="65bd71144e">
    <diagram id="EnEWUnsPJ1HNixJqk1R9" name="Page-1">
        <mxGraphModel dx="1342" dy="542" grid="1" gridSize="10" guides="1" tooltips="1" connect="1" arrows="1" fold="1" page="1" pageScale="1" pageWidth="850" pageHeight="1100" math="0" shadow="0">
            <root>
                <mxCell id="0"/>
                <mxCell id="1" parent="0"/>
                <mxCell id="60" value="" style="rounded=0;whiteSpace=wrap;html=1;fillColor=#CCCCFF;" vertex="1" parent="1">
                    <mxGeometry x="-70" y="310" width="570" height="880" as="geometry"/>
                </mxCell>
                <mxCell id="32" value="" style="edgeStyle=none;html=1;" edge="1" parent="1" source="5" target="22">
                    <mxGeometry relative="1" as="geometry"/>
                </mxCell>
                <mxCell id="5" value="&lt;span style=&quot;font-size: 14px;&quot;&gt;Create socket&lt;/span&gt;" style="rounded=0;whiteSpace=wrap;html=1;fontStyle=1" vertex="1" parent="1">
                    <mxGeometry x="295" y="400" width="140" height="50" as="geometry"/>
                </mxCell>
                <mxCell id="33" value="" style="edgeStyle=none;html=1;" edge="1" parent="1" source="22" target="24">
                    <mxGeometry relative="1" as="geometry"/>
                </mxCell>
                <mxCell id="22" value="&lt;span&gt;&lt;font style=&quot;font-size: 14px;&quot;&gt;Bind socket&lt;/font&gt;&lt;/span&gt;" style="rounded=0;whiteSpace=wrap;html=1;fontStyle=1" vertex="1" parent="1">
                    <mxGeometry x="295" y="470" width="140" height="50" as="geometry"/>
                </mxCell>
                <mxCell id="34" value="" style="edgeStyle=none;html=1;" edge="1" parent="1" source="24" target="25">
                    <mxGeometry relative="1" as="geometry"/>
                </mxCell>
                <mxCell id="24" value="&lt;span style=&quot;font-size: 14px;&quot;&gt;Listen for connection&lt;/span&gt;" style="rounded=0;whiteSpace=wrap;html=1;fontStyle=1" vertex="1" parent="1">
                    <mxGeometry x="295" y="540" width="140" height="50" as="geometry"/>
                </mxCell>
                <mxCell id="25" value="&lt;span style=&quot;font-size: 14px;&quot;&gt;Accept connection&lt;/span&gt;" style="rounded=0;whiteSpace=wrap;html=1;fontStyle=1" vertex="1" parent="1">
                    <mxGeometry x="295" y="610" width="140" height="50" as="geometry"/>
                </mxCell>
                <mxCell id="30" value="" style="edgeStyle=none;html=1;" edge="1" parent="1" source="26" target="27">
                    <mxGeometry relative="1" as="geometry"/>
                </mxCell>
                <mxCell id="26" value="&lt;span style=&quot;font-size: 14px;&quot;&gt;Create socket&lt;/span&gt;" style="rounded=0;whiteSpace=wrap;html=1;fontStyle=1" vertex="1" parent="1">
                    <mxGeometry x="-5" y="400" width="140" height="50" as="geometry"/>
                </mxCell>
                <mxCell id="31" value="" style="edgeStyle=none;html=1;" edge="1" parent="1" source="27" target="28">
                    <mxGeometry relative="1" as="geometry"/>
                </mxCell>
                <mxCell id="27" value="&lt;span style=&quot;font-size: 14px;&quot;&gt;Input server IP&lt;/span&gt;" style="rounded=0;whiteSpace=wrap;html=1;fontStyle=1" vertex="1" parent="1">
                    <mxGeometry x="-5" y="470" width="140" height="50" as="geometry"/>
                </mxCell>
                <mxCell id="28" value="&lt;span style=&quot;font-size: 14px;&quot;&gt;Connect to server&lt;/span&gt;" style="rounded=0;whiteSpace=wrap;html=1;fontStyle=1" vertex="1" parent="1">
                    <mxGeometry x="-5" y="540" width="140" height="50" as="geometry"/>
                </mxCell>
                <mxCell id="35" value="&lt;font style=&quot;font-size: 18px;&quot; face=&quot;Verdana&quot;&gt;&lt;b&gt;Client side&lt;/b&gt;&lt;/font&gt;" style="text;html=1;align=center;verticalAlign=middle;whiteSpace=wrap;rounded=0;" vertex="1" parent="1">
                    <mxGeometry x="-28.75" y="340" width="170" height="30" as="geometry"/>
                </mxCell>
                <mxCell id="36" value="&lt;font face=&quot;Verdana&quot;&gt;&lt;span style=&quot;font-size: 18px;&quot;&gt;&lt;b&gt;Server side&lt;/b&gt;&lt;/span&gt;&lt;/font&gt;" style="text;html=1;align=center;verticalAlign=middle;whiteSpace=wrap;rounded=0;" vertex="1" parent="1">
                    <mxGeometry x="271.25" y="340" width="190" height="30" as="geometry"/>
                </mxCell>
                <mxCell id="42" value="&lt;span style=&quot;color: rgb(63, 63, 63); font-size: 14px; font-weight: 700;&quot;&gt;Send Username&lt;/span&gt;" style="shape=parallelogram;perimeter=parallelogramPerimeter;whiteSpace=wrap;html=1;fixedSize=1;shadow=0;" vertex="1" parent="1">
                    <mxGeometry x="145" y="710" width="155" height="50" as="geometry"/>
                </mxCell>
                <mxCell id="45" value="" style="endArrow=classic;html=1;entryX=1;entryY=0.5;entryDx=0;entryDy=0;" edge="1" parent="1" target="42">
                    <mxGeometry width="50" height="50" relative="1" as="geometry">
                        <mxPoint x="370" y="735" as="sourcePoint"/>
                        <mxPoint x="300" y="600" as="targetPoint"/>
                    </mxGeometry>
                </mxCell>
                <mxCell id="46" value="" style="endArrow=classic;html=1;entryX=0;entryY=0.5;entryDx=0;entryDy=0;" edge="1" parent="1" target="42">
                    <mxGeometry width="50" height="50" relative="1" as="geometry">
                        <mxPoint x="70" y="735" as="sourcePoint"/>
                        <mxPoint x="300" y="745" as="targetPoint"/>
                    </mxGeometry>
                </mxCell>
                <mxCell id="47" value="&lt;span style=&quot;font-size: 14px;&quot;&gt;Recieve Username&lt;/span&gt;" style="rounded=0;whiteSpace=wrap;html=1;fontStyle=1" vertex="1" parent="1">
                    <mxGeometry x="145" y="800" width="140" height="50" as="geometry"/>
                </mxCell>
                <mxCell id="48" value="" style="endArrow=classic;html=1;exitX=0;exitY=0.5;exitDx=0;exitDy=0;" edge="1" parent="1" source="47">
                    <mxGeometry width="50" height="50" relative="1" as="geometry">
                        <mxPoint x="80" y="745" as="sourcePoint"/>
                        <mxPoint x="60" y="825" as="targetPoint"/>
                    </mxGeometry>
                </mxCell>
                <mxCell id="50" value="" style="endArrow=classic;html=1;exitX=1;exitY=0.5;exitDx=0;exitDy=0;" edge="1" parent="1" source="47">
                    <mxGeometry width="50" height="50" relative="1" as="geometry">
                        <mxPoint x="155" y="835" as="sourcePoint"/>
                        <mxPoint x="370" y="825" as="targetPoint"/>
                    </mxGeometry>
                </mxCell>
                <mxCell id="52" value="&lt;span style=&quot;color: rgb(63, 63, 63); font-size: 14px; font-weight: 700;&quot;&gt;Send Message&lt;/span&gt;" style="shape=parallelogram;perimeter=parallelogramPerimeter;whiteSpace=wrap;html=1;fixedSize=1;shadow=0;" vertex="1" parent="1">
                    <mxGeometry x="-13.75" y="910" width="155" height="50" as="geometry"/>
                </mxCell>
                <mxCell id="53" value="&lt;span style=&quot;font-size: 14px;&quot;&gt;Recieve Message&lt;/span&gt;" style="rounded=0;whiteSpace=wrap;html=1;fontStyle=1" vertex="1" parent="1">
                    <mxGeometry x="301.25" y="910" width="140" height="50" as="geometry"/>
                </mxCell>
                <mxCell id="54" value="" style="endArrow=classic;startArrow=classic;html=1;entryX=0.5;entryY=1;entryDx=0;entryDy=0;exitX=0.5;exitY=0;exitDx=0;exitDy=0;" edge="1" parent="1" source="56" target="52">
                    <mxGeometry width="50" height="50" relative="1" as="geometry">
                        <mxPoint x="76.25" y="990" as="sourcePoint"/>
                        <mxPoint x="296.25" y="900" as="targetPoint"/>
                    </mxGeometry>
                </mxCell>
                <mxCell id="55" value="" style="endArrow=classic;startArrow=classic;html=1;entryX=0.5;entryY=1;entryDx=0;entryDy=0;exitX=0.541;exitY=0.037;exitDx=0;exitDy=0;exitPerimeter=0;" edge="1" parent="1" source="57" target="53">
                    <mxGeometry width="50" height="50" relative="1" as="geometry">
                        <mxPoint x="371.25" y="990" as="sourcePoint"/>
                        <mxPoint x="73.25" y="970" as="targetPoint"/>
                    </mxGeometry>
                </mxCell>
                <mxCell id="63" value="" style="edgeStyle=none;html=1;entryX=0;entryY=0.5;entryDx=0;entryDy=0;" edge="1" parent="1" source="56" target="62">
                    <mxGeometry relative="1" as="geometry">
                        <Array as="points">
                            <mxPoint x="64" y="1135"/>
                        </Array>
                    </mxGeometry>
                </mxCell>
                <mxCell id="56" value="&lt;span style=&quot;font-size: 14px;&quot;&gt;Recieve Message&lt;/span&gt;" style="rounded=0;whiteSpace=wrap;html=1;fontStyle=1" vertex="1" parent="1">
                    <mxGeometry x="-6.25" y="1000" width="140" height="50" as="geometry"/>
                </mxCell>
                <mxCell id="57" value="&lt;span style=&quot;color: rgb(63, 63, 63); font-size: 14px; font-weight: 700;&quot;&gt;Send Message&lt;/span&gt;" style="shape=parallelogram;perimeter=parallelogramPerimeter;whiteSpace=wrap;html=1;fixedSize=1;shadow=0;" vertex="1" parent="1">
                    <mxGeometry x="288.75" y="1000" width="155" height="50" as="geometry"/>
                </mxCell>
                <mxCell id="58" value="" style="endArrow=classic;html=1;exitX=1;exitY=0.5;exitDx=0;exitDy=0;entryX=0;entryY=0.5;entryDx=0;entryDy=0;" edge="1" parent="1" source="52" target="53">
                    <mxGeometry width="50" height="50" relative="1" as="geometry">
                        <mxPoint x="246.25" y="950" as="sourcePoint"/>
                        <mxPoint x="296.25" y="900" as="targetPoint"/>
                    </mxGeometry>
                </mxCell>
                <mxCell id="59" value="" style="endArrow=classic;html=1;exitX=0;exitY=0.5;exitDx=0;exitDy=0;entryX=1;entryY=0.5;entryDx=0;entryDy=0;" edge="1" parent="1" source="57" target="56">
                    <mxGeometry width="50" height="50" relative="1" as="geometry">
                        <mxPoint x="141.25" y="945" as="sourcePoint"/>
                        <mxPoint x="311.25" y="945" as="targetPoint"/>
                    </mxGeometry>
                </mxCell>
                <mxCell id="62" value="&lt;span style=&quot;font-size: 14px;&quot;&gt;Close connection&lt;/span&gt;" style="rounded=0;whiteSpace=wrap;html=1;fontStyle=1" vertex="1" parent="1">
                    <mxGeometry x="148.75" y="1110" width="140" height="50" as="geometry"/>
                </mxCell>
                <mxCell id="64" value="" style="edgeStyle=none;html=1;entryX=1;entryY=0.5;entryDx=0;entryDy=0;exitX=0.5;exitY=1;exitDx=0;exitDy=0;" edge="1" parent="1" source="57" target="62">
                    <mxGeometry relative="1" as="geometry">
                        <mxPoint x="74" y="1060" as="sourcePoint"/>
                        <mxPoint x="180" y="1145" as="targetPoint"/>
                        <Array as="points">
                            <mxPoint x="366" y="1135"/>
                        </Array>
                    </mxGeometry>
                </mxCell>
                <mxCell id="40" value="" style="edgeStyle=none;html=1;entryX=0.462;entryY=0.02;entryDx=0;entryDy=0;entryPerimeter=0;" edge="1" parent="1" source="25" target="53">
                    <mxGeometry relative="1" as="geometry">
                        <mxPoint x="370" y="940" as="targetPoint"/>
                    </mxGeometry>
                </mxCell>
                <mxCell id="38" value="" style="edgeStyle=none;html=1;entryX=0.5;entryY=0;entryDx=0;entryDy=0;" edge="1" parent="1" source="28" target="52">
                    <mxGeometry relative="1" as="geometry">
                        <mxPoint x="70" y="940" as="targetPoint"/>
                    </mxGeometry>
                </mxCell>
            </root>
        </mxGraphModel>
    </diagram>
</mxfile>